<?xml version="1.0" encoding="utf-8"?>
<svg version="1.1" xmlns:xlink="http://www.w3.org/1999/xlink" width="10px" height="8px" xmlns="http://www.w3.org/2000/svg">
  <g transform="matrix(1 0 0 1 -1330 -32 )">
    <path d="M 9.814453125 7.73611111111111  C 9.93815104166667 7.56018518518519  10 7.35185185185185  10 7.11111111111111  C 10 6.87037037037037  9.93815104166667 6.66203703703704  9.814453125 6.48611111111111  L 5.439453125 0.263888888888889  C 5.31575520833333 0.0879629629629619  5.16927083333333 0  5 0  C 4.83072916666667 0  4.68424479166667 0.0879629629629619  4.560546875 0.263888888888889  L 0.185546875 6.48611111111111  C 0.0618489583333333 6.66203703703704  0 6.87037037037037  0 7.11111111111111  C 0 7.35185185185185  0.0618489583333333 7.56018518518519  0.185546875 7.73611111111111  C 0.309244791666667 7.91203703703704  0.455729166666667 8  0.625 8  L 9.375 8  C 9.54427083333333 8  9.69075520833333 7.91203703703704  9.814453125 7.73611111111111  Z " fill-rule="nonzero" fill="#aaaaaa" stroke="none" transform="matrix(1 0 0 1 1330 32 )" />
  </g>
</svg>