<?xml version="1.0" encoding="utf-8"?>
<svg version="1.1" xmlns:xlink="http://www.w3.org/1999/xlink" width="40px" height="37px" xmlns="http://www.w3.org/2000/svg">
  <g transform="matrix(1 0 0 1 -15 -17 )">
    <path d="M 10.8035714285714 27.6448863636364  C 11.2202380952381 28.1354166666667  11.4285714285714 28.7310606060606  11.4285714285714 29.4318181818182  L 11.4285714285714 34.4772727272727  C 11.4285714285714 35.1780303030303  11.2202380952381 35.7736742424242  10.8035714285714 36.2642045454545  C 10.3869047619048 36.7547348484849  9.88095238095238 37  9.28571428571429 37  L 2.14285714285714 37  C 1.54761904761905 37  1.04166666666667 36.7547348484849  0.625 36.2642045454545  C 0.208333333333333 35.7736742424242  0 35.1780303030303  0 34.4772727272727  L 0 29.4318181818182  C 0 28.7310606060606  0.208333333333333 28.1354166666667  0.625 27.6448863636364  C 1.04166666666667 27.1543560606061  1.54761904761905 26.9090909090909  2.14285714285714 26.9090909090909  L 9.28571428571429 26.9090909090909  C 9.88095238095238 26.9090909090909  10.3869047619048 27.1543560606061  10.8035714285714 27.6448863636364  Z M 10.8035714285714 14.1903409090909  C 11.2202380952381 14.6808712121212  11.4285714285714 15.2765151515152  11.4285714285714 15.9772727272727  L 11.4285714285714 21.0227272727273  C 11.4285714285714 21.7234848484849  11.2202380952381 22.3191287878788  10.8035714285714 22.8096590909091  C 10.3869047619048 23.3001893939394  9.88095238095238 23.5454545454545  9.28571428571429 23.5454545454545  L 2.14285714285714 23.5454545454545  C 1.54761904761905 23.5454545454545  1.04166666666667 23.3001893939394  0.625 22.8096590909091  C 0.208333333333333 22.3191287878788  0 21.7234848484849  0 21.0227272727273  L 0 15.9772727272727  C 0 15.2765151515152  0.208333333333333 14.6808712121212  0.625 14.1903409090909  C 1.04166666666667 13.6998106060606  1.54761904761905 13.4545454545455  2.14285714285714 13.4545454545455  L 9.28571428571429 13.4545454545455  C 9.88095238095238 13.4545454545455  10.3869047619048 13.6998106060606  10.8035714285714 14.1903409090909  Z M 25.0892857142857 27.6448863636364  C 25.5059523809524 28.1354166666667  25.7142857142857 28.7310606060606  25.7142857142857 29.4318181818182  L 25.7142857142857 34.4772727272727  C 25.7142857142857 35.1780303030303  25.5059523809524 35.7736742424242  25.0892857142857 36.2642045454545  C 24.6726190476191 36.7547348484849  24.1666666666667 37  23.5714285714286 37  L 16.4285714285714 37  C 15.8333333333333 37  15.327380952381 36.7547348484849  14.9107142857143 36.2642045454545  C 14.4940476190476 35.7736742424242  14.2857142857143 35.1780303030303  14.2857142857143 34.4772727272727  L 14.2857142857143 29.4318181818182  C 14.2857142857143 28.7310606060606  14.4940476190476 28.1354166666667  14.9107142857143 27.6448863636364  C 15.327380952381 27.1543560606061  15.8333333333333 26.9090909090909  16.4285714285714 26.9090909090909  L 23.5714285714286 26.9090909090909  C 24.1666666666667 26.9090909090909  24.6726190476191 27.1543560606061  25.0892857142857 27.6448863636364  Z M 10.8035714285714 0.735795454545455  C 11.2202380952381 1.22632575757576  11.4285714285714 1.8219696969697  11.4285714285714 2.52272727272727  L 11.4285714285714 7.56818181818182  C 11.4285714285714 8.26893939393939  11.2202380952381 8.86458333333333  10.8035714285714 9.35511363636363  C 10.3869047619048 9.84564393939394  9.88095238095238 10.0909090909091  9.28571428571429 10.0909090909091  L 2.14285714285714 10.0909090909091  C 1.54761904761905 10.0909090909091  1.04166666666667 9.84564393939394  0.625 9.35511363636363  C 0.208333333333333 8.86458333333333  0 8.26893939393939  0 7.56818181818182  L 0 2.52272727272727  C 0 1.8219696969697  0.208333333333333 1.22632575757576  0.625 0.735795454545455  C 1.04166666666667 0.24526515151515  1.54761904761905 0  2.14285714285714 0  L 9.28571428571429 0  C 9.88095238095238 0  10.3869047619048 0.24526515151515  10.8035714285714 0.735795454545455  Z M 25.0892857142857 14.1903409090909  C 25.5059523809524 14.6808712121212  25.7142857142857 15.2765151515152  25.7142857142857 15.9772727272727  L 25.7142857142857 21.0227272727273  C 25.7142857142857 21.7234848484849  25.5059523809524 22.3191287878788  25.0892857142857 22.8096590909091  C 24.6726190476191 23.3001893939394  24.1666666666667 23.5454545454545  23.5714285714286 23.5454545454545  L 16.4285714285714 23.5454545454545  C 15.8333333333333 23.5454545454545  15.327380952381 23.3001893939394  14.9107142857143 22.8096590909091  C 14.4940476190476 22.3191287878788  14.2857142857143 21.7234848484849  14.2857142857143 21.0227272727273  L 14.2857142857143 15.9772727272727  C 14.2857142857143 15.2765151515152  14.4940476190476 14.6808712121212  14.9107142857143 14.1903409090909  C 15.327380952381 13.6998106060606  15.8333333333333 13.4545454545455  16.4285714285714 13.4545454545455  L 23.5714285714286 13.4545454545455  C 24.1666666666667 13.4545454545455  24.6726190476191 13.6998106060606  25.0892857142857 14.1903409090909  Z M 39.375 27.6448863636364  C 39.7916666666667 28.1354166666667  40 28.7310606060606  40 29.4318181818182  L 40 34.4772727272727  C 40 35.1780303030303  39.7916666666667 35.7736742424242  39.375 36.2642045454545  C 38.9583333333333 36.7547348484849  38.452380952381 37  37.8571428571429 37  L 30.7142857142857 37  C 30.1190476190476 37  29.6130952380952 36.7547348484849  29.1964285714286 36.2642045454545  C 28.7797619047619 35.7736742424242  28.5714285714286 35.1780303030303  28.5714285714286 34.4772727272727  L 28.5714285714286 29.4318181818182  C 28.5714285714286 28.7310606060606  28.7797619047619 28.1354166666667  29.1964285714286 27.6448863636364  C 29.6130952380952 27.1543560606061  30.1190476190476 26.9090909090909  30.7142857142857 26.9090909090909  L 37.8571428571429 26.9090909090909  C 38.452380952381 26.9090909090909  38.9583333333333 27.1543560606061  39.375 27.6448863636364  Z M 25.0892857142857 0.735795454545455  C 25.5059523809524 1.22632575757576  25.7142857142857 1.8219696969697  25.7142857142857 2.52272727272727  L 25.7142857142857 7.56818181818182  C 25.7142857142857 8.26893939393939  25.5059523809524 8.86458333333333  25.0892857142857 9.35511363636363  C 24.6726190476191 9.84564393939394  24.1666666666667 10.0909090909091  23.5714285714286 10.0909090909091  L 16.4285714285714 10.0909090909091  C 15.8333333333333 10.0909090909091  15.327380952381 9.84564393939394  14.9107142857143 9.35511363636363  C 14.4940476190476 8.86458333333333  14.2857142857143 8.26893939393939  14.2857142857143 7.56818181818182  L 14.2857142857143 2.52272727272727  C 14.2857142857143 1.8219696969697  14.4940476190476 1.22632575757576  14.9107142857143 0.735795454545455  C 15.327380952381 0.24526515151515  15.8333333333333 0  16.4285714285714 0  L 23.5714285714286 0  C 24.1666666666667 0  24.6726190476191 0.24526515151515  25.0892857142857 0.735795454545455  Z M 39.375 14.1903409090909  C 39.7916666666667 14.6808712121212  40 15.2765151515152  40 15.9772727272727  L 40 21.0227272727273  C 40 21.7234848484849  39.7916666666667 22.3191287878788  39.375 22.8096590909091  C 38.9583333333333 23.3001893939394  38.452380952381 23.5454545454545  37.8571428571429 23.5454545454545  L 30.7142857142857 23.5454545454545  C 30.1190476190476 23.5454545454545  29.6130952380952 23.3001893939394  29.1964285714286 22.8096590909091  C 28.7797619047619 22.3191287878788  28.5714285714286 21.7234848484849  28.5714285714286 21.0227272727273  L 28.5714285714286 15.9772727272727  C 28.5714285714286 15.2765151515152  28.7797619047619 14.6808712121212  29.1964285714286 14.1903409090909  C 29.6130952380952 13.6998106060606  30.1190476190476 13.4545454545455  30.7142857142857 13.4545454545455  L 37.8571428571429 13.4545454545455  C 38.452380952381 13.4545454545455  38.9583333333333 13.6998106060606  39.375 14.1903409090909  Z M 39.375 0.735795454545455  C 39.7916666666667 1.22632575757576  40 1.8219696969697  40 2.52272727272727  L 40 7.56818181818182  C 40 8.26893939393939  39.7916666666667 8.86458333333333  39.375 9.35511363636363  C 38.9583333333333 9.84564393939394  38.452380952381 10.0909090909091  37.8571428571429 10.0909090909091  L 30.7142857142857 10.0909090909091  C 30.1190476190476 10.0909090909091  29.6130952380952 9.84564393939394  29.1964285714286 9.35511363636363  C 28.7797619047619 8.86458333333333  28.5714285714286 8.26893939393939  28.5714285714286 7.56818181818182  L 28.5714285714286 2.52272727272727  C 28.5714285714286 1.8219696969697  28.7797619047619 1.22632575757576  29.1964285714286 0.735795454545455  C 29.6130952380952 0.24526515151515  30.1190476190476 0  30.7142857142857 0  L 37.8571428571429 0  C 38.452380952381 0  38.9583333333333 0.24526515151515  39.375 0.735795454545455  Z " fill-rule="nonzero" fill="#000000" stroke="none" transform="matrix(1 0 0 1 15 17 )" />
  </g>
</svg>