<?xml version="1.0" encoding="utf-8"?>
<svg version="1.1" xmlns:xlink="http://www.w3.org/1999/xlink" width="45px" height="45px" xmlns="http://www.w3.org/2000/svg">
  <g transform="matrix(1 0 0 1 -212 -13 )">
    <path d="M 234.5 13  C 247.1 13  257 22.9  257 35.5  C 257 48.1  247.1 58  234.5 58  C 221.9 58  212 48.1  212 35.5  C 212 22.9  221.9 13  234.5 13  Z " fill-rule="nonzero" fill="#d7d7d7" stroke="none" />
    <path d="M 234.5 13.5  C 246.82 13.5  256.5 23.18  256.5 35.5  C 256.5 47.82  246.82 57.5  234.5 57.5  C 222.18 57.5  212.5 47.82  212.5 35.5  C 212.5 23.18  222.18 13.5  234.5 13.5  Z " stroke-width="1" stroke="#797979" fill="none" />
  </g>
</svg>