<?xml version="1.0" encoding="utf-8"?>
<svg version="1.1" xmlns:xlink="http://www.w3.org/1999/xlink" width="21px" height="25px" xmlns="http://www.w3.org/2000/svg">
  <g transform="matrix(1 0 0 1 -224 -23 )">
    <path d="M 17.5 7.14285714285714  C 17.5 8.51004464285714  17.1399739583333 9.77492559523809  16.419921875 10.9375  C 16.8483072916667 11.0677083333333  17.2561848958333 11.2444196428571  17.6435546875 11.4676339285714  C 18.0309244791667 11.6908482142857  18.4365234375 12.0303199404762  18.8603515625 12.4860491071429  C 19.2841796875 12.9417782738095  19.646484375 13.4788876488095  19.947265625 14.0973772321429  C 20.248046875 14.7158668154762  20.4986979166667 15.5157180059524  20.69921875 16.4969308035714  C 20.8997395833333 17.4781436011905  21 18.5779389880952  21 19.7963169642857  C 21 21.2286086309524  20.5442708333333 22.4539620535714  19.6328125 23.4723772321429  C 18.7213541666667 24.4907924107143  17.623046875 25  16.337890625 25  L 4.662109375 25  C 3.376953125 25  2.27864583333333 24.4907924107143  1.3671875 23.4723772321429  C 0.455729166666667 22.4539620535714  0 21.2286086309524  0 19.7963169642857  C 0 18.5779389880952  0.100260416666667 17.4781436011905  0.30078125 16.4969308035714  C 0.501302083333333 15.5157180059524  0.751953125 14.7158668154762  1.052734375 14.0973772321429  C 1.353515625 13.4788876488095  1.7158203125 12.9417782738095  2.1396484375 12.4860491071429  C 2.5634765625 12.0303199404762  2.96907552083333 11.6908482142857  3.3564453125 11.4676339285714  C 3.74381510416667 11.2444196428571  4.15169270833333 11.0677083333333  4.580078125 10.9375  C 3.86002604166667 9.77492559523809  3.5 8.51004464285714  3.5 7.14285714285714  C 3.5 6.17559523809524  3.6845703125 5.25251116071428  4.0537109375 4.37360491071428  C 4.4228515625 3.49469866071428  4.921875 2.734375  5.55078125 2.09263392857143  C 6.1796875 1.45089285714286  6.9248046875 0.941685267857142  7.7861328125 0.565011160714285  C 8.6474609375 0.188337053571427  9.55208333333333 0  10.5 0  C 11.4479166666667 0  12.3525390625 0.188337053571427  13.2138671875 0.565011160714285  C 14.0751953125 0.941685267857142  14.8203125 1.45089285714286  15.44921875 2.09263392857143  C 16.078125 2.734375  16.5771484375 3.49469866071428  16.9462890625 4.37360491071428  C 17.3154296875 5.25251116071428  17.5 6.17559523809524  17.5 7.14285714285714  Z M 14.2119140625 3.35518973214286  C 13.1865234375 2.30887276785714  11.94921875 1.78571428571428  10.5 1.78571428571428  C 9.05078125 1.78571428571428  7.8134765625 2.30887276785714  6.7880859375 3.35518973214286  C 5.7626953125 4.40150669642857  5.25 5.6640625  5.25 7.14285714285714  C 5.25 8.62165178571428  5.7626953125 9.88420758928572  6.7880859375 10.9305245535714  C 7.8134765625 11.9768415178571  9.05078125 12.5  10.5 12.5  C 11.94921875 12.5  13.1865234375 11.9768415178571  14.2119140625 10.9305245535714  C 15.2373046875 9.88420758928572  15.75 8.62165178571428  15.75 7.14285714285714  C 15.75 5.6640625  15.2373046875 4.40150669642857  14.2119140625 3.35518973214286  Z M 4.662109375 23  L 16.337890625 23  C 17.1399739583333 23.2142857142857  17.8258463541667 22.8817894345238  18.3955078125 22.216796875  C 18.9651692708333 21.5518043154762  19.25 20.7449776785714  19.25 19.7963169642857  C 19.25 17.5734747023809  18.8922526041667 15.8203125  18.1767578125 14.5368303571429  C 17.4612630208333 13.2533482142857  16.43359375 12.5790550595238  15.09375 12.5139508928571  C 13.7721354166667 13.6951264880952  12.2408854166667 14.2857142857143  10.5 14.2857142857143  C 8.75911458333333 14.2857142857143  7.22786458333333 13.6951264880952  5.90625 12.5139508928571  C 4.56640625 12.5790550595238  3.53873697916667 13.2533482142857  2.8232421875 14.5368303571429  C 2.10774739583333 15.8203125  1.75 17.5734747023809  1.75 19.7963169642857  C 1.75 20.7449776785714  2.03483072916667 21.5518043154762  2.6044921875 22.216796875  C 3.17415364583333 22.8817894345238  3.86002604166667 23.2142857142857  4.662109375 23  Z " fill-rule="nonzero" fill="#ffffff" stroke="none" transform="matrix(1 0 0 1 224 23 )" />
  </g>
</svg>