<?xml version="1.0" encoding="utf-8"?>
<svg version="1.1" xmlns:xlink="http://www.w3.org/1999/xlink" width="32px" height="32px" xmlns="http://www.w3.org/2000/svg">
  <g transform="matrix(1 0 0 1 -1699 -19 )">
    <path d="M 23.5416666666667 18.71875  C 23.7083333333333 19.0451388888889  23.7361111111111 19.3819444444444  23.625 19.7291666666667  C 23.1111111111111 21.4097222222222  22.1527777777778 22.7638888888889  20.75 23.7916666666667  C 19.3472222222222 24.8194444444444  17.7638888888889 25.3333333333333  16 25.3333333333333  C 14.2361111111111 25.3333333333333  12.6527777777778 24.8194444444444  11.25 23.7916666666667  C 9.84722222222222 22.7638888888889  8.88888888888889 21.4097222222222  8.375 19.7291666666667  C 8.26388888888889 19.3819444444444  8.29166666666667 19.0451388888889  8.45833333333333 18.71875  C 8.625 18.3923611111111  8.88888888888889 18.1736111111111  9.25 18.0625  C 9.59722222222222 17.9513888888889  9.93402777777778 17.9791666666667  10.2604166666667 18.1458333333333  C 10.5868055555556 18.3125  10.8055555555556 18.5763888888889  10.9166666666667 18.9375  C 11.2638888888889 20.0486111111111  11.90625 20.9479166666667  12.84375 21.6354166666667  C 13.78125 22.3229166666667  14.8333333333333 22.6666666666667  16 22.6666666666667  C 17.1666666666667 22.6666666666667  18.21875 22.3229166666667  19.15625 21.6354166666667  C 20.09375 20.9479166666667  20.7361111111111 20.0486111111111  21.0833333333333 18.9375  C 21.1944444444444 18.5763888888889  21.4166666666667 18.3125  21.75 18.1458333333333  C 22.0833333333333 17.9791666666667  22.4236111111111 17.9513888888889  22.7708333333333 18.0625  C 23.1180555555556 18.1736111111111  23.375 18.3923611111111  23.5416666666667 18.71875  Z M 12.5520833333333 8.78125  C 13.0729166666667 9.30208333333333  13.3333333333333 9.93055555555555  13.3333333333333 10.6666666666667  C 13.3333333333333 11.4027777777778  13.0729166666667 12.03125  12.5520833333333 12.5520833333333  C 12.03125 13.0729166666667  11.4027777777778 13.3333333333333  10.6666666666667 13.3333333333333  C 9.93055555555556 13.3333333333333  9.30208333333333 13.0729166666667  8.78125 12.5520833333333  C 8.26041666666667 12.03125  8 11.4027777777778  8 10.6666666666667  C 8 9.93055555555555  8.26041666666667 9.30208333333333  8.78125 8.78125  C 9.30208333333333 8.26041666666667  9.93055555555556 8  10.6666666666667 8  C 11.4027777777778 8  12.03125 8.26041666666667  12.5520833333333 8.78125  Z M 23.21875 8.78125  C 23.7395833333333 9.30208333333333  24 9.93055555555555  24 10.6666666666667  C 24 11.4027777777778  23.7395833333333 12.03125  23.21875 12.5520833333333  C 22.6979166666667 13.0729166666667  22.0694444444444 13.3333333333333  21.3333333333333 13.3333333333333  C 20.5972222222222 13.3333333333333  19.96875 13.0729166666667  19.4479166666667 12.5520833333333  C 18.9270833333333 12.03125  18.6666666666667 11.4027777777778  18.6666666666667 10.6666666666667  C 18.6666666666667 9.93055555555555  18.9270833333333 9.30208333333333  19.4479166666667 8.78125  C 19.96875 8.26041666666667  20.5972222222222 8  21.3333333333333 8  C 22.0694444444444 8  22.6979166666667 8.26041666666667  23.21875 8.78125  Z M 28.2708333333333 21.1770833333333  C 28.9791666666667 19.53125  29.3333333333333 17.8055555555556  29.3333333333333 16  C 29.3333333333333 14.1944444444444  28.9791666666667 12.46875  28.2708333333333 10.8229166666667  C 27.5625 9.17708333333333  26.6145833333333 7.76041666666667  25.4270833333333 6.57291666666667  C 24.2395833333333 5.38541666666667  22.8229166666667 4.4375  21.1770833333333 3.72916666666667  C 19.53125 3.02083333333333  17.8055555555556 2.66666666666667  16 2.66666666666667  C 14.1944444444444 2.66666666666667  12.46875 3.02083333333333  10.8229166666667 3.72916666666667  C 9.17708333333333 4.4375  7.76041666666667 5.38541666666667  6.57291666666667 6.57291666666667  C 5.38541666666667 7.76041666666667  4.4375 9.17708333333333  3.72916666666667 10.8229166666667  C 3.02083333333333 12.46875  2.66666666666667 14.1944444444444  2.66666666666667 16  C 2.66666666666667 17.8055555555556  3.02083333333333 19.53125  3.72916666666667 21.1770833333333  C 4.4375 22.8229166666667  5.38541666666667 24.2395833333333  6.57291666666667 25.4270833333333  C 7.76041666666667 26.6145833333333  9.17708333333333 27.5625  10.8229166666667 28.2708333333333  C 12.46875 28.9791666666667  14.1944444444444 29.3333333333333  16 29.3333333333333  C 17.8055555555556 29.3333333333333  19.53125 28.9791666666667  21.1770833333333 28.2708333333333  C 22.8229166666667 27.5625  24.2395833333333 26.6145833333333  25.4270833333333 25.4270833333333  C 26.6145833333333 24.2395833333333  27.5625 22.8229166666667  28.2708333333333 21.1770833333333  Z M 29.8541666666667 7.96875  C 31.2847222222222 10.4201388888889  32 13.0972222222222  32 16  C 32 18.9027777777778  31.2847222222222 21.5798611111111  29.8541666666667 24.03125  C 28.4236111111111 26.4826388888889  26.4826388888889 28.4236111111111  24.03125 29.8541666666667  C 21.5798611111111 31.2847222222222  18.9027777777778 32  16 32  C 13.0972222222222 32  10.4201388888889 31.2847222222222  7.96875 29.8541666666667  C 5.51736111111111 28.4236111111111  3.57638888888889 26.4826388888889  2.14583333333333 24.03125  C 0.715277777777778 21.5798611111111  0 18.9027777777778  0 16  C 0 13.0972222222222  0.715277777777778 10.4201388888889  2.14583333333333 7.96875  C 3.57638888888889 5.51736111111111  5.51736111111111 3.57638888888889  7.96875 2.14583333333333  C 10.4201388888889 0.715277777777775  13.0972222222222 0  16 0  C 18.9027777777778 0  21.5798611111111 0.715277777777775  24.03125 2.14583333333333  C 26.4826388888889 3.57638888888889  28.4236111111111 5.51736111111111  29.8541666666667 7.96875  Z " fill-rule="nonzero" fill="#ffffff" stroke="none" transform="matrix(1 0 0 1 1699 19 )" />
  </g>
</svg>