<?xml version="1.0" encoding="utf-8"?>
<svg version="1.1" xmlns:xlink="http://www.w3.org/1999/xlink" width="23px" height="33px" xmlns="http://www.w3.org/2000/svg">
  <g transform="matrix(1 0 0 1 -1639 -19 )">
    <path d="M 14.8443243243243 25.059375  C 15.0432432432432 25.265625  15.1427027027027 25.50625  15.1427027027027 25.78125  L 15.1427027027027 31.96875  C 15.1427027027027 32.24375  15.0432432432432 32.484375  14.8443243243243 32.690625  C 14.6454054054054 32.896875  14.4133333333333 33  14.1481081081081 33  L 8.18054054054054 33  C 7.91531531531532 33  7.68324324324325 32.896875  7.48432432432432 32.690625  C 7.28540540540541 32.484375  7.18594594594594 32.24375  7.18594594594594 31.96875  L 7.18594594594594 25.78125  C 7.18594594594594 25.50625  7.28540540540541 25.265625  7.48432432432432 25.059375  C 7.68324324324325 24.853125  7.91531531531532 24.75  8.18054054054054 24.75  L 14.1481081081081 24.75  C 14.4133333333333 24.75  14.6454054054054 24.853125  14.8443243243243 25.059375  Z M 21.9805405405405 6.226171875  C 22.6601801801802 7.523828125  23 8.8859375  23 10.3125  C 23 11.240625  22.8715315315315 12.10859375  22.6145945945946 12.91640625  C 22.3576576576577 13.72421875  22.0675675675676 14.381640625  21.7443243243243 14.888671875  C 21.4210810810811 15.395703125  20.9652252252252 15.90703125  20.3767567567568 16.42265625  C 19.7882882882883 16.93828125  19.3117117117117 17.312109375  18.947027027027 17.544140625  C 18.5823423423423 17.776171875  18.0767567567568 18.08125  17.4302702702703 18.459375  C 16.7506306306306 18.8546875  16.1828828828829 19.41328125  15.727027027027 20.13515625  C 15.2711711711712 20.85703125  15.0432432432432 21.4328125  15.0432432432432 21.8625  C 15.0432432432432 22.1546875  14.9437837837838 22.433984375  14.7448648648649 22.700390625  C 14.5459459459459 22.966796875  14.3138738738739 23.1  14.0486486486486 23.1  L 8.08108108108108 23.1  C 7.83243243243243 23.1  7.62108108108108 22.941015625  7.44702702702703 22.623046875  C 7.27297297297297 22.305078125  7.18594594594594 21.9828125  7.18594594594594 21.65625  L 7.18594594594594 20.49609375  C 7.18594594594594 19.06953125  7.72468468468468 17.724609375  8.80216216216216 16.461328125  C 9.87963963963964 15.198046875  11.0648648648649 14.265625  12.3578378378378 13.6640625  C 13.3358558558559 13.2  14.0320720720721 12.71875  14.4464864864865 12.2203125  C 14.8609009009009 11.721875  15.0681081081081 11.06875  15.0681081081081 10.2609375  C 15.0681081081081 9.5390625  14.6827027027027 8.903125  13.9118918918919 8.353125  C 13.1410810810811 7.803125  12.2500900900901 7.528125  11.2389189189189 7.528125  C 10.1614414414414 7.528125  9.26630630630631 7.77734375  8.55351351351351 8.27578125  C 7.97333333333333 8.70546875  7.08648648648649 9.69375  5.89297297297297 11.240625  C 5.67747747747748 11.515625  5.42054054054054 11.653125  5.12216216216216 11.653125  C 4.92324324324324 11.653125  4.71603603603604 11.584375  4.50054054054054 11.446875  L 0.422702702702703 8.22421875  C 0.207207207207207 8.05234375  0.0787387387387392 7.8375  0.0372972972972973 7.5796875  C -0.00414414414414391 7.321875  0.0414414414414416 7.08125  0.174054054054054 6.8578125  C 2.82630630630631 2.28593749999999  6.67207207207207 0  11.7113513513514 0  C 13.0374774774775 0  14.3718918918919 0.26640625  15.7145945945946 0.799218749999999  C 17.0572972972973 1.33203125  18.2673873873874 2.0453125  19.3448648648649 2.9390625  C 20.4223423423423 3.83281249999999  21.3009009009009 4.92851562499999  21.9805405405405 6.226171875  Z " fill-rule="nonzero" fill="#ffffff" stroke="none" transform="matrix(1 0 0 1 1639 19 )" />
  </g>
</svg>