<?xml version="1.0" encoding="utf-8"?>
<svg version="1.1" xmlns:xlink="http://www.w3.org/1999/xlink" width="32px" height="30px" xmlns="http://www.w3.org/2000/svg">
  <g transform="matrix(1 0 0 1 -1568 -20 )">
    <path d="M 24.25 27.12890625  C 24.4935897435897 26.8815104166667  24.6153846153846 26.5885416666667  24.6153846153846 26.25  C 24.6153846153846 25.9114583333333  24.4935897435897 25.6184895833333  24.25 25.37109375  C 24.0064102564103 25.1236979166667  23.7179487179487 25  23.3846153846154 25  C 23.0512820512821 25  22.7628205128205 25.1236979166667  22.5192307692308 25.37109375  C 22.275641025641 25.6184895833333  22.1538461538462 25.9114583333333  22.1538461538462 26.25  C 22.1538461538462 26.5885416666667  22.275641025641 26.8815104166667  22.5192307692308 27.12890625  C 22.7628205128205 27.3763020833333  23.0512820512821 27.5  23.3846153846154 27.5  C 23.7179487179487 27.5  24.0064102564103 27.3763020833333  24.25 27.12890625  Z M 29.1730769230769 27.12890625  C 29.4166666666667 26.8815104166667  29.5384615384615 26.5885416666667  29.5384615384615 26.25  C 29.5384615384615 25.9114583333333  29.4166666666667 25.6184895833333  29.1730769230769 25.37109375  C 28.9294871794872 25.1236979166667  28.6410256410256 25  28.3076923076923 25  C 27.974358974359 25  27.6858974358974 25.1236979166667  27.4423076923077 25.37109375  C 27.198717948718 25.6184895833333  27.0769230769231 25.9114583333333  27.0769230769231 26.25  C 27.0769230769231 26.5885416666667  27.198717948718 26.8815104166667  27.4423076923077 27.12890625  C 27.6858974358974 27.3763020833333  27.974358974359 27.5  28.3076923076923 27.5  C 28.6410256410256 27.5  28.9294871794872 27.3763020833333  29.1730769230769 27.12890625  Z M 31.4615384615385 20.546875  C 31.8205128205128 20.9114583333333  32 21.3541666666667  32 21.875  L 32 28.125  C 32 28.6458333333333  31.8205128205128 29.0885416666667  31.4615384615385 29.453125  C 31.1025641025641 29.8177083333333  30.6666666666667 30  30.1538461538462 30  L 1.84615384615385 30  C 1.33333333333333 30  0.897435897435898 29.8177083333333  0.538461538461538 29.453125  C 0.179487179487179 29.0885416666667  0 28.6458333333333  0 28.125  L 0 21.875  C 0 21.3541666666667  0.179487179487179 20.9114583333333  0.538461538461538 20.546875  C 0.897435897435898 20.1822916666667  1.33333333333333 20  1.84615384615385 20  L 10.7884615384615 20  L 13.3846153846154 22.65625  C 14.1282051282051 23.3854166666667  15 23.75  16 23.75  C 17 23.75  17.8717948717949 23.3854166666667  18.6153846153846 22.65625  L 21.2307692307692 20  L 30.1538461538462 20  C 30.6666666666667 20  31.1025641025641 20.1822916666667  31.4615384615385 20.546875  Z M 24.6153846153846 10  C 25.1538461538462 10  25.5320512820513 10.25390625  25.75 10.76171875  C 25.9679487179487 11.2955729166667  25.8782051282051 11.7513020833333  25.4807692307692 12.12890625  L 16.8653846153846 20.87890625  C 16.6346153846154 21.1263020833333  16.3461538461538 21.25  16 21.25  C 15.6538461538462 21.25  15.3653846153846 21.1263020833333  15.1346153846154 20.87890625  L 6.51923076923077 12.12890625  C 6.12179487179487 11.7513020833333  6.03205128205128 11.2955729166667  6.25 10.76171875  C 6.46794871794872 10.25390625  6.84615384615385 10  7.38461538461539 10  L 12.3076923076923 10  L 12.3076923076923 1.25  C 12.3076923076923 0.911458333333329  12.4294871794872 0.618489583333329  12.6730769230769 0.371093749999999  C 12.9166666666667 0.123697916666669  13.2051282051282 0  13.5384615384615 0  L 18.4615384615385 0  C 18.7948717948718 0  19.0833333333333 0.123697916666669  19.3269230769231 0.371093749999999  C 19.5705128205128 0.618489583333329  19.6923076923077 0.911458333333329  19.6923076923077 1.25  L 19.6923076923077 10  L 24.6153846153846 10  Z " fill-rule="nonzero" fill="#ffffff" stroke="none" transform="matrix(1 0 0 1 1568 20 )" />
  </g>
</svg>