<?xml version="1.0" encoding="utf-8"?>
<svg version="1.1" xmlns:xlink="http://www.w3.org/1999/xlink" width="36px" height="28px" xmlns="http://www.w3.org/2000/svg">
  <g transform="matrix(1 0 0 1 -1500 -22 )">
    <path d="M 33.2377232142857 25.265625  C 33.3649553571429 25.139678030303  33.4285714285714 24.9905303030303  33 24.8181818181818  L 33 9.54545454545455  C 33 10.0227272727273  32.5379464285714 10.4602272727273  32.0424107142857 10.8579545454545  C 28.453125 13.5890151515151  25.6004464285714 15.8295454545455  23.484375 17.5795454545455  C 22.8013392857143 18.1496212121212  22.2455357142857 18.59375  21.8169642857143 18.9119318181818  C 21.3883928571429 19.2301136363636  20.8091517857143 19.5516098484848  20.0792410714286 19.8764204545455  C 19.3493303571429 20.2012310606061  18.6629464285714 20.3636363636364  18.0200892857143 20.3636363636364  L 18 20.3636363636364  L 17.9799107142857 20.3636363636364  C 17.3370535714286 20.3636363636364  16.6506696428571 20.2012310606061  15.9207589285714 19.8764204545455  C 15.1908482142857 19.5516098484848  14.6116071428571 19.2301136363636  14.1830357142857 18.9119318181818  C 13.7544642857143 18.59375  13.1986607142857 18.1496212121212  12.515625 17.5795454545455  C 10.3995535714286 15.8295454545455  7.546875 13.5890151515151  3.95758928571429 10.8579545454545  C 3.46205357142857 10.4602272727273  3 10.0227272727273  3 9.54545454545455  L 3 24.8181818181818  C 2.57142857142857 24.9905303030303  2.63504464285714 25.139678030303  2.76227678571429 25.265625  C 2.88950892857143 25.391571969697  3.04017857142857 25.4545454545455  3.21428571428571 25  L 32.7857142857143 25  C 32.9598214285714 25.4545454545455  33.1104910714286 25.391571969697  33.2377232142857 25.265625  Z M 32.4944196428571 6.53267045454545  C 33.1171875 5.57149621212121  33.4285714285714 4.69981060606061  33.4285714285714 3.91761363636364  L 33.4285714285714 3.69886363636364  L 33.4285714285714 3.43039772727273  C 33.4285714285714 3.43039772727273  33.4252232142857 3.34422348484848  33.4185267857143 3.171875  C 33.4118303571429 2.99952651515151  33.3917410714286 2.91666666666666  33.3582589285714 2.92329545454545  C 33.3247767857143 2.92992424242424  33.2879464285714 2.87026515151515  33.2477678571429 2.74431818181818  C 33.2075892857143 2.61837121212121  33.1473214285714 2.5686553030303  33.0669642857143 2.59517045454545  C 32.9866071428571 2.62168560606061  32.8928571428571 2.60511363636364  32.7857142857143 3  L 3.21428571428571 3  C 3.04017857142857 2.54545454545455  2.88950892857143 2.60842803030303  2.76227678571429 2.734375  C 2.63504464285714 2.86032196969697  2.57142857142857 3.0094696969697  2.57142857142857 3.18181818181818  C 2.57142857142857 5.40909090909091  3.55580357142857 7.29166666666666  5.52455357142857 8.82954545454545  C 8.109375 10.844696969697  10.7946428571429 12.9460227272727  13.5803571428571 15.1335227272727  C 13.6607142857143 15.1998106060606  13.8950892857143 15.3953598484848  14.2834821428571 15.7201704545455  C 14.671875 16.0449810606061  14.9799107142857 16.2935606060606  15.2075892857143 16.4659090909091  C 15.4352678571429 16.6382575757576  15.7332589285714 16.8470643939394  16.1015625 17.0923295454545  C 16.4698660714286 17.3375946969697  16.8080357142857 17.5198863636364  17.1160714285714 17.6392045454545  C 17.4241071428571 17.7585227272727  17.7120535714286 17.8181818181818  17.9799107142857 17.8181818181818  L 18 17.8181818181818  L 18.0200892857143 17.8181818181818  C 18.2879464285714 17.8181818181818  18.5758928571429 17.7585227272727  18.8839285714286 17.6392045454545  C 19.1919642857143 17.5198863636364  19.5301339285714 17.3375946969697  19.8984375 17.0923295454545  C 20.2667410714286 16.8470643939394  20.5647321428571 16.6382575757576  20.7924107142857 16.4659090909091  C 21.0200892857143 16.2935606060606  21.328125 16.0449810606061  21.7165178571429 15.7201704545455  C 22.1049107142857 15.3953598484848  22.3392857142857 15.1998106060606  22.4196428571429 15.1335227272727  C 25.2053571428571 12.9460227272727  27.890625 10.844696969697  30.4754464285714 8.82954545454545  C 31.1986607142857 8.2594696969697  31.8716517857143 7.4938446969697  32.4944196428571 6.53267045454545  Z M 35.0558035714286 0.934659090909089  C 35.6852678571429 1.55776515151515  36 2.30681818181818  36 3.18181818181818  L 36 24.8181818181818  C 36 25.6931818181818  35.6852678571429 26.4422348484849  35.0558035714286 27.0653409090909  C 34.4263392857143 27.688446969697  33.6696428571429 28  32.7857142857143 28  L 3.21428571428571 28  C 2.33035714285714 28  1.57366071428571 27.688446969697  0.944196428571429 27.0653409090909  C 0.314732142857143 26.4422348484849  0 25.6931818181818  0 24.8181818181818  L 0 3.18181818181818  C 0 2.30681818181818  0.314732142857143 1.55776515151515  0.944196428571429 0.934659090909089  C 1.57366071428571 0.311553030303027  2.33035714285714 0  3.21428571428571 0  L 32.7857142857143 0  C 33.6696428571429 0  34.4263392857143 0.311553030303027  35.0558035714286 0.934659090909089  Z " fill-rule="nonzero" fill="#ffffff" stroke="none" transform="matrix(1 0 0 1 1500 22 )" />
  </g>
</svg>