<?xml version="1.0" encoding="utf-8"?>
<svg version="1.1" xmlns:xlink="http://www.w3.org/1999/xlink" width="33px" height="23px" xmlns="http://www.w3.org/2000/svg">
  <g transform="matrix(1 0 0 1 -15 -91 )">
    <path d="M 32.591796875 18.74140625  C 32.8639322916667 18.9690104166667  33 19.2385416666667  33 19.55  L 33 21.85  C 33 22.1614583333333  32.8639322916667 22.4309895833333  32.591796875 22.65859375  C 32.3196614583333 22.8861979166667  31.9973958333333 23  31.625 23  L 1.375 23  C 1.00260416666667 23  0.680338541666667 22.8861979166667  0.408203125 22.65859375  C 0.136067708333333 22.4309895833333  0 22.1614583333333  0 21.85  L 0 19.55  C 0 19.2385416666667  0.136067708333333 18.9690104166667  0.408203125 18.74140625  C 0.680338541666667 18.5138020833333  1.00260416666667 18.4  1.375 18  L 31.625 18  C 31.9973958333333 18.4  32.3196614583333 18.5138020833333  32.591796875 18.74140625  Z M 32.591796875 9.54140625  C 32.8639322916667 9.76901041666667  33 10.0385416666667  33 10.35  L 33 12.65  C 33 12.9614583333333  32.8639322916667 13.2309895833333  32.591796875 13.45859375  C 32.3196614583333 13.6861979166667  31.9973958333333 13.8  31.625 13.8  L 1.375 13.8  C 1.00260416666667 13.8  0.680338541666667 13.6861979166667  0.408203125 13.45859375  C 0.136067708333333 13.2309895833333  0 12.9614583333333  0 12.65  L 0 10.35  C 0 10.0385416666667  0.136067708333333 9.76901041666667  0.408203125 9.54140625  C 0.680338541666667 9.31380208333334  1.00260416666667 9.2  1.375 9.2  L 31.625 9.2  C 31.9973958333333 9.2  32.3196614583333 9.31380208333334  32.591796875 9.54140625  Z M 32.591796875 0.341406250000001  C 32.8639322916667 0.569010416666665  33 0.838541666666665  33 1.15  L 33 3.45  C 33 3.76145833333333  32.8639322916667 4.03098958333333  32.591796875 4.25859375  C 32.3196614583333 4.48619791666666  31.9973958333333 4.6  31.625 5  L 1.375 5  C 1.00260416666667 4.6  0.680338541666667 4.48619791666666  0.408203125 4.25859375  C 0.136067708333333 4.03098958333333  0 3.76145833333333  0 3.45  L 0 1.15  C 0 0.838541666666665  0.136067708333333 0.569010416666665  0.408203125 0.341406250000001  C 0.680338541666667 0.113802083333332  1.00260416666667 0  1.375 0  L 31.625 0  C 31.9973958333333 0  32.3196614583333 0.113802083333332  32.591796875 0.341406250000001  Z " fill-rule="nonzero" fill="#ffffff" stroke="none" transform="matrix(1 0 0 1 15 91 )" />
  </g>
</svg>