<?xml version="1.0" encoding="utf-8"?>
<svg version="1.1" xmlns:xlink="http://www.w3.org/1999/xlink" width="31px" height="32px" xmlns="http://www.w3.org/2000/svg">
  <g transform="matrix(1 0 0 1 -17 -246 )">
    <path d="M 13.5997596153846 18.3181818181818  C 14.0717147435897 18.8939393939394  14.3076923076923 19.5757575757576  14.3076923076923 20.3636363636364  L 14.3076923076923 29.0909090909091  C 14.3076923076923 29.8787878787879  14.0717147435897 30.5606060606061  13.5997596153846 31.1363636363636  C 13.1278044871795 31.7121212121212  12.5689102564103 32  11.9230769230769 32  L 2.38461538461538 32  C 1.73878205128205 32  1.17988782051282 31.7121212121212  0.707932692307692 31.1363636363636  C 0.235977564102564 30.5606060606061  0 29.8787878787879  0 29.0909090909091  L 0 20.3636363636364  C 0 19.5757575757576  0.235977564102564 18.8939393939394  0.707932692307692 18.3181818181818  C 1.17988782051282 17.7424242424242  1.73878205128205 17.4545454545455  2.38461538461538 17.4545454545455  L 11.9230769230769 17.4545454545455  C 12.5689102564103 17.4545454545455  13.1278044871795 17.7424242424242  13.5997596153846 18.3181818181818  Z M 13.5997596153846 0.863636363636363  C 14.0717147435897 1.43939393939394  14.3076923076923 2.12121212121212  14.3076923076923 2.90909090909091  L 14.3076923076923 11.6363636363636  C 14.3076923076923 12.4242424242424  14.0717147435897 13.1060606060606  13.5997596153846 13.6818181818182  C 13.1278044871795 14.2575757575758  12.5689102564103 14.5454545454545  11.9230769230769 14.5454545454545  L 2.38461538461538 14.5454545454545  C 1.73878205128205 14.5454545454545  1.17988782051282 14.2575757575758  0.707932692307692 13.6818181818182  C 0.235977564102564 13.1060606060606  0 12.4242424242424  0 11.6363636363636  L 0 2.90909090909091  C 0 2.12121212121212  0.235977564102564 1.43939393939394  0.707932692307692 0.863636363636363  C 1.17988782051282 0.287878787878785  1.73878205128205 0  2.38461538461538 0  L 11.9230769230769 0  C 12.5689102564103 0  13.1278044871795 0.287878787878785  13.5997596153846 0.863636363636363  Z M 30.2920673076923 18.3181818181818  C 30.7640224358974 18.8939393939394  31 19.5757575757576  31 20.3636363636364  L 31 29.0909090909091  C 31 29.8787878787879  30.7640224358974 30.5606060606061  30.2920673076923 31.1363636363636  C 29.8201121794872 31.7121212121212  29.261217948718 32  28.6153846153846 32  L 19.0769230769231 32  C 18.4310897435897 32  17.8721955128205 31.7121212121212  17.4002403846154 31.1363636363636  C 16.9282852564103 30.5606060606061  16.6923076923077 29.8787878787879  16.6923076923077 29.0909090909091  L 16.6923076923077 20.3636363636364  C 16.6923076923077 19.5757575757576  16.9282852564103 18.8939393939394  17.4002403846154 18.3181818181818  C 17.8721955128205 17.7424242424242  18.4310897435897 17.4545454545455  19.0769230769231 17.4545454545455  L 28.6153846153846 17.4545454545455  C 29.261217948718 17.4545454545455  29.8201121794872 17.7424242424242  30.2920673076923 18.3181818181818  Z M 30.2920673076923 0.863636363636363  C 30.7640224358974 1.43939393939394  31 2.12121212121212  31 2.90909090909091  L 31 11.6363636363636  C 31 12.4242424242424  30.7640224358974 13.1060606060606  30.2920673076923 13.6818181818182  C 29.8201121794872 14.2575757575758  29.261217948718 14.5454545454545  28.6153846153846 14.5454545454545  L 19.0769230769231 14.5454545454545  C 18.4310897435897 14.5454545454545  17.8721955128205 14.2575757575758  17.4002403846154 13.6818181818182  C 16.9282852564103 13.1060606060606  16.6923076923077 12.4242424242424  16.6923076923077 11.6363636363636  L 16.6923076923077 2.90909090909091  C 16.6923076923077 2.12121212121212  16.9282852564103 1.43939393939394  17.4002403846154 0.863636363636363  C 17.8721955128205 0.287878787878785  18.4310897435897 0  19.0769230769231 0  L 28.6153846153846 0  C 29.261217948718 0  29.8201121794872 0.287878787878785  30.2920673076923 0.863636363636363  Z " fill-rule="nonzero" fill="#d7d7d7" stroke="none" transform="matrix(1 0 0 1 17 246 )" />
  </g>
</svg>