<?xml version="1.0" encoding="utf-8"?>
<svg version="1.1" xmlns:xlink="http://www.w3.org/1999/xlink" width="31px" height="29px" xmlns="http://www.w3.org/2000/svg">
  <g transform="matrix(1 0 0 1 -17 -301 )">
    <path d="M 8.26666666666667 10.3571428571429  C 8.26666666666667 11.8567708333333  8.70260416666667 13.2377232142857  9.57447916666667 14.5  C 7.83072916666667 14.553943452381  6.40451388888889 15.2444196428571  5.29583333333333 16.5714285714286  L 3.13229166666667 16.5714285714286  C 2.24965277777778 16.5714285714286  1.50694444444444 16.3529575892857  0.904166666666667 15.916015625  C 0.301388888888889 15.4790736607143  0 14.83984375  0 13.9983258928571  C 0 10.1899181547619  0.667361111111111 8.28571428571428  2.00208333333333 8.28571428571428  C 2.06666666666667 8.28571428571428  2.30078125 8.39899553571428  2.70442708333333 8.62555803571428  C 3.10807291666667 8.85212053571428  3.6328125 9.08138020833333  4.27864583333333 9.31333705357143  C 4.92447916666667 9.54529389880952  5.56493055555556 9.66127232142857  6.2 9.66127232142857  C 6.92118055555556 9.66127232142857  7.63697916666667 9.53720238095238  8.34739583333333 9.2890625  C 8.29357638888889 9.68824404761904  8.26666666666667 10.0442708333333  8.26666666666667 10.3571428571429  Z M 26.81015625 23.1336495535714  C 26.8478298611111 23.678478422619  26.8666666666667 24.2367931547619  26.8666666666667 24.80859375  C 26.8666666666667 26.1032366071429  26.4737847222222 27.1254650297619  25.6880208333333 27.8752790178571  C 24.9022569444444 28.6250930059524  23.8581597222222 29  22.5557291666667 29  L 8.44427083333333 29  C 7.14184027777778 29  6.09774305555556 28.6250930059524  5.31197916666667 27.8752790178571  C 4.52621527777778 27.1254650297619  4.13333333333333 26.1032366071429  4.13333333333333 24.80859375  C 4.13333333333333 24.2367931547619  4.15217013888889 23.678478422619  4.18984375 23.1336495535714  C 4.22751736111111 22.5888206845238  4.30286458333333 22.0008370535714  4.41588541666667 21.3696986607143  C 4.52890625 20.7385602678571  4.67152777777778 20.1532738095238  4.84375 19.6138392857143  C 5.01597222222222 19.0744047619048  5.24739583333333 18.5484561011905  5.53802083333333 18.0359933035714  C 5.82864583333333 17.5235305059524  6.16232638888889 17.0865885416667  6.5390625 16.7251674107143  C 6.91579861111111 16.3637462797619  7.37595486111111 16.0751488095238  7.91953125 15.859375  C 8.46310763888889 15.6436011904762  9.06319444444444 15.5357142857143  9.71979166666667 15.5357142857143  C 9.82743055555556 15.5357142857143  10.0588541666667 15.6516927083333  10.4140625 15.8836495535714  C 10.7692708333333 16.1156063988095  11.1621527777778 16.3745349702381  11.5927083333333 16.6604352678571  C 12.0232638888889 16.9463355654762  12.5991319444444 17.2052641369048  13.3203125 17.4372209821429  C 14.0414930555556 17.669177827381  14.7680555555556 17.78515625  15.5 17.78515625  C 16.2319444444444 17.78515625  16.9585069444444 17.669177827381  17.6796875 17.4372209821429  C 18.4008680555556 17.2052641369048  18.9767361111111 16.9463355654762  19.4072916666667 16.6604352678571  C 19.8378472222222 16.3745349702381  20.2307291666667 16.1156063988095  20.5859375 15.8836495535714  C 20.9411458333333 15.6516927083333  21.1725694444444 15.5357142857143  21.2802083333333 15.5357142857143  C 21.9368055555556 15.5357142857143  22.5368923611111 15.6436011904762  23.08046875 15.859375  C 23.6240451388889 16.0751488095238  24.0842013888889 16.3637462797619  24.4609375 16.7251674107143  C 24.8376736111111 17.0865885416667  25.1713541666667 17.5235305059524  25.4619791666667 18.0359933035714  C 25.7526041666667 18.5484561011905  25.9840277777778 19.0744047619048  26.15625 19.6138392857143  C 26.3284722222222 20.1532738095238  26.47109375 20.7385602678571  26.5841145833333 21.3696986607143  C 26.6971354166667 22.0008370535714  26.7724826388889 22.5888206845238  26.81015625 23.1336495535714  Z M 9.12239583333333 1.21372767857143  C 9.9296875 2.02287946428571  10.3333333333333 2.99925595238095  10.3333333333333 4.14285714285714  C 10.3333333333333 5.28645833333333  9.9296875 6.26283482142857  9.12239583333333 7.07198660714286  C 8.31510416666667 7.88113839285714  7.34097222222222 8.28571428571428  6.2 8.28571428571428  C 5.05902777777778 8.28571428571428  4.08489583333333 7.88113839285714  3.27760416666667 7.07198660714286  C 2.4703125 6.26283482142857  2.06666666666667 5.28645833333333  2.06666666666667 4.14285714285714  C 2.06666666666667 2.99925595238095  2.4703125 2.02287946428571  3.27760416666667 1.21372767857143  C 4.08489583333333 0.404575892857144  5.05902777777778 0  6.2 0  C 7.34097222222222 0  8.31510416666667 0.404575892857144  9.12239583333333 1.21372767857143  Z M 19.88359375 5.96344866071429  C 21.09453125 7.17717633928571  21.7 8.64174107142857  21.7 10.3571428571429  C 21.7 12.0725446428571  21.09453125 13.537109375  19.88359375 14.7508370535714  C 18.67265625 15.9645647321429  17.2114583333333 16.5714285714286  15.5 16.5714285714286  C 13.7885416666667 16.5714285714286  12.32734375 15.9645647321429  11.11640625 14.7508370535714  C 9.90546875 13.537109375  9.3 12.0725446428571  9.3 10.3571428571429  C 9.3 8.64174107142857  9.90546875 7.17717633928571  11.11640625 5.96344866071429  C 12.32734375 4.74972098214286  13.7885416666667 4.14285714285714  15.5 4.14285714285714  C 17.2114583333333 4.14285714285714  18.67265625 4.74972098214286  19.88359375 5.96344866071429  Z M 28.9979166666667 8.28571428571428  C 30.3326388888889 8.28571428571428  31 10.1899181547619  31 13.9983258928571  C 31 14.83984375  30.6986111111111 15.4790736607143  30.0958333333333 15.916015625  C 29.4930555555556 16.3529575892857  28.7503472222222 16.5714285714286  27.8677083333333 16.5714285714286  L 25.7041666666667 16.5714285714286  C 24.5954861111111 15.2444196428571  23.1692708333333 14.553943452381  21.4255208333333 14.5  C 22.2973958333333 13.2377232142857  22.7333333333333 11.8567708333333  22.7333333333333 10.3571428571429  C 22.7333333333333 10.0442708333333  22.7064236111111 9.68824404761904  22.6526041666667 9.2890625  C 23.3630208333333 9.53720238095238  24.0788194444444 9.66127232142857  24.8 9.66127232142857  C 25.4350694444444 9.66127232142857  26.0755208333333 9.54529389880952  26.7213541666667 9.31333705357143  C 27.3671875 9.08138020833333  27.8919270833333 8.85212053571428  28.2955729166667 8.62555803571428  C 28.69921875 8.39899553571428  28.9333333333333 8.28571428571428  28.9979166666667 8.28571428571428  Z M 27.7223958333333 1.21372767857143  C 28.5296875 2.02287946428571  28.9333333333333 2.99925595238095  28.9333333333333 4.14285714285714  C 28.9333333333333 5.28645833333333  28.5296875 6.26283482142857  27.7223958333333 7.07198660714286  C 26.9151041666667 7.88113839285714  25.9409722222222 8.28571428571428  24.8 8.28571428571428  C 23.6590277777778 8.28571428571428  22.6848958333333 7.88113839285714  21.8776041666667 7.07198660714286  C 21.0703125 6.26283482142857  20.6666666666667 5.28645833333333  20.6666666666667 4.14285714285714  C 20.6666666666667 2.99925595238095  21.0703125 2.02287946428571  21.8776041666667 1.21372767857143  C 22.6848958333333 0.404575892857144  23.6590277777778 0  24.8 0  C 25.9409722222222 0  26.9151041666667 0.404575892857144  27.7223958333333 1.21372767857143  Z " fill-rule="nonzero" fill="#d7d7d7" stroke="none" transform="matrix(1 0 0 1 17 301 )" />
  </g>
</svg>