<?xml version="1.0" encoding="utf-8"?>
<svg version="1.1" xmlns:xlink="http://www.w3.org/1999/xlink" width="31px" height="31px" xmlns="http://www.w3.org/2000/svg">
  <g transform="matrix(1 0 0 1 -16 -355 )">
    <path d="M 2.37862723214286 2.37862723214286  C 2.26906622023809 2.48818824404762  2.21428571428571 2.61793154761905  2.21428571428571 2.76785714285714  L 2.21428571428571 21.5892857142857  C 2.21428571428571 21.7392113095238  2.26906622023809 21.8689546130952  2.37862723214286 21.978515625  C 2.48818824404762 22.0880766369048  2.61793154761905 22.1428571428571  2.76785714285714 22  L 21.5892857142857 22  C 21.7392113095238 22.1428571428571  21.8689546130952 22.0880766369048  21.978515625 21.978515625  C 22.0880766369048 21.8689546130952  22.1428571428571 21.7392113095238  22 21.5892857142857  L 22 2.76785714285714  C 22.1428571428571 2.61793154761905  22.0880766369048 2.48818824404762  21.978515625 2.37862723214286  C 21.8689546130952 2.2690662202381  21.7392113095238 2.21428571428571  21.5892857142857 2.21428571428571  L 2.76785714285714 2.21428571428571  C 2.61793154761905 2.21428571428571  2.48818824404762 2.2690662202381  2.37862723214286 2.37862723214286  Z M 0.813058035714287 23.5440848214286  C 0.271019345238092 23.0020461309524  0 22.3504464285714  0 21.5892857142857  L 0 2.76785714285714  C 0 2.00669642857143  0.271019345238092 1.35509672619047  0.813058035714287 0.813058035714287  C 1.35509672619047 0.271019345238096  2.00669642857142 0  2.76785714285714 0  L 21.5892857142857 0  C 22.3504464285714 0  23.0020461309524 0.271019345238096  23.5440848214286 0.813058035714287  C 24.0861235119048 1.35509672619047  24.3571428571429 2.00669642857143  24 2.76785714285714  L 24 21.5892857142857  C 24.3571428571429 22.3504464285714  24.0861235119048 23.0020461309524  23.5440848214286 23.5440848214286  C 23.0020461309524 24.0861235119048  22.3504464285714 24.3571428571429  21.5892857142857 24  L 2.76785714285714 24  C 2.00669642857142 24.3571428571429  1.35509672619047 24.0861235119048  0.813058035714287 23.5440848214286  Z M 7.45591517857143 30.1869419642857  C 6.91387648809524 29.6449032738095  6.64285714285714 28.9933035714286  6.64285714285714 28.2321428571429  L 6.64285714285714 25.4642857142857  L 8.85714285714286 25.4642857142857  L 8.85714285714286 28.2321428571429  C 8.85714285714286 28.382068452381  8.91192336309524 28.5118117559524  9.021484375 28.6213727678571  C 9.13104538690476 28.7309337797619  9.26078869047619 28.7857142857143  9.41071428571429 28.7857142857143  L 28.2321428571429 28.7857142857143  C 28.382068452381 28.7857142857143  28.5118117559524 28.7309337797619  28.6213727678571 28.6213727678571  C 28.7309337797619 28.5118117559524  28.7857142857143 28.382068452381  28.7857142857143 28.2321428571429  L 28.7857142857143 9.41071428571429  C 28.7857142857143 9.26078869047619  28.7309337797619 9.13104538690476  28.6213727678571 9.021484375  C 28.5118117559524 8.91192336309524  28.382068452381 8.85714285714286  28.2321428571429 8.85714285714286  L 25.4642857142857 8.85714285714286  L 25.4642857142857 6.64285714285714  L 28.2321428571429 6.64285714285714  C 28.9933035714286 6.64285714285714  29.6449032738095 6.91387648809524  30.1869419642857 7.45591517857143  C 30.7289806547619 7.99795386904762  31 8.64955357142857  31 9.41071428571429  L 31 28.2321428571429  C 31 28.9933035714286  30.7289806547619 29.6449032738095  30.1869419642857 30.1869419642857  C 29.6449032738095 30.7289806547619  28.9933035714286 31  28.2321428571429 31  L 9.41071428571429 31  C 8.64955357142857 31  7.99795386904762 30.7289806547619  7.45591517857143 30.1869419642857  Z " fill-rule="nonzero" fill="#ffffff" stroke="none" transform="matrix(1 0 0 1 16 355 )" />
  </g>
</svg>