<?xml version="1.0" encoding="utf-8"?>
<svg version="1.1" xmlns:xlink="http://www.w3.org/1999/xlink" width="10px" height="20px" xmlns="http://www.w3.org/2000/svg">
  <g transform="matrix(1 0 0 1 -393 -402 )">
    <path d="M 9.48775055679287 5.08413461538461  C 9.62880475129918 5.08413461538461  9.75501113585746 5.14423076923077  9.86636971046771 5.26442307692308  C 10 5.42467948717949  10.0259836674091 5.60096153846154  9.94432071269488 5.79326923076923  L 3.93095768374165 19.6995192307692  C 3.83444691907944 19.8998397435897  3.67854491462509 20  3.46325167037862 20  C 3.43355605048255 20  3.38158871566444 19.9919871794872  3.30734966592428 19.9759615384615  C 3.181143281366 19.9358974358974  3.08648849294729 19.8597756410256  3.02338530066815 19.7475961538462  C 2.96028210838901 19.6354166666667  2.94357832219748 19.5152243589744  2.97327394209354 19.3870192307692  L 5.16703786191537 9.67548076923077  L 0.645879732739421 10.8894230769231  C 0.616184112843356 10.8974358974359  0.571640682999258 10.9014423076923  0.512249443207127 10.9014423076923  C 0.378619153674833 10.9014423076923  0.26354862657758 10.8573717948718  0.167037861915368 10.7692307692308  C 0.0334075723830735 10.6490384615385  -0.0148478099480327 10.4927884615385  0.022271714922049 10.3004807692308  L 2.26057906458797 0.384615384615385  C 2.29027468448404 0.272435897435896  2.34966592427617 0.180288461538463  2.43875278396437 0.108173076923077  C 2.52783964365256 0.0360576923076916  2.63177431328879 0  2.75055679287305 0  L 6.40311804008909 0  C 6.5441722345954 0  6.66295471417966 0.0500801282051255  6.75946547884187 0.150240384615385  C 6.85597624350408 0.250400641025641  6.90423162583519 0.368589743589742  6.90423162583519 0.504807692307692  C 6.90423162583519 0.568910256410255  6.88567186340015 0.641025641025641  6.84855233853007 0.721153846153846  L 4.94432071269488 6.28605769230769  L 9.35412026726058 5.10817307692308  C 9.41351150705271 5.09214743589743  9.45805493689681 5.08413461538461  9.48775055679287 5.08413461538461  Z " fill-rule="nonzero" fill="#02a7f0" stroke="none" transform="matrix(1 0 0 1 393 402 )" />
  </g>
</svg>